<svg width="13712" height="19800" viewBox="0 0 13712 19800" fill="none" xmlns="http://www.w3.org/2000/svg">
<path d="M7654.73 12695.9C7793.21 12384.2 7763.22 12023.4 7575.18 11738.7L0 273.07L13711 10589.1L4499.04 19800L7654.73 12695.9Z" fill="#197280"/>
<path d="M7665.52 12696.5C7773.41 12454.4 7780.83 12179.5 7686.14 11932L3121.05 0L13711.1 10589L4499.04 19800L7665.52 12696.5Z" fill="#1D8596"/>
<path d="M7982.27 11958.8C8096.13 11702.5 8097.12 11410.2 7985.01 11153.1L3121.05 0L13711 10589L4499.05 19800L7982.27 11958.8Z" fill="#15616D"/>
<path d="M11529.8 10874.3L11899.6 10504.5L11913.7 10514.4L11538.3 10889.8L11529.8 10874.3ZM11925.7 11234.9C11926.7 11235.9 11927.2 11237.3 11927.2 11239.2C11927.6 11240.6 11927.2 11242 11925.7 11243.4L11722.8 11446.3C11721.4 11447.8 11719.7 11448.5 11717.9 11448.5C11716 11448.5 11714.6 11448 11713.6 11447C11712.2 11445.6 11712 11444 11712.9 11442.1C11712.9 11440.2 11713.6 11438.6 11715 11437.1L11737.7 11394.7C11746.1 11377.7 11750.1 11356.8 11749.7 11331.8C11748.7 11306.3 11737.4 11273.8 11715.7 11234.2L11144.4 10175C11134.5 10156.6 11122.7 10145.7 11109 10142.4C11095.8 10138.7 11079.3 10142.4 11059.5 10153.7C11053.4 10155.2 11048.7 10156.6 11045.4 10158C11042.6 10158.9 11040.7 10158.9 11039.7 10158C11037.9 10156.1 11037.1 10154.5 11037.6 10153C11038.1 10151.6 11039.3 10150 11041.2 10148.1L11263.9 9925.35C11265.8 9923.47 11267.4 9922.29 11268.8 9921.82C11270.3 9921.35 11271.9 9922.05 11273.8 9923.94C11274.7 9924.88 11275 9927 11274.5 9930.3C11273.6 9933.13 11271.7 9937.37 11268.8 9943.03C11256.1 9957.64 11250.5 9968.49 11251.9 9975.56C11253.3 9981.69 11261.3 9988.28 11275.9 9995.36L12470.2 10608.4C12485.8 10616.4 12500.4 10619.3 12514.1 10616.9C12527.7 10614.5 12541.2 10607.7 12554.4 10596.4C12557.2 10594.5 12559.6 10593.6 12561.4 10593.6C12562.9 10593.1 12564.3 10593.6 12565.7 10595C12566.6 10595.9 12567.1 10597.3 12567.1 10599.2C12567.6 10600.6 12566.9 10602.3 12565 10604.2L12299.8 10869.3C12298.4 10870.8 12296.7 10871.5 12294.9 10871.5C12293 10871.5 12291.6 10871 12290.6 10870C12289.2 10868.6 12289 10867 12289.9 10865.1C12290.9 10863.2 12292 10861.1 12293.4 10858.7L12327.4 10816.3C12335.9 10803.1 12338.5 10792 12335.2 10783.1C12331.4 10773.6 12322.9 10765.6 12309.7 10759L11142.3 10155.9L11131 10116.3L11729.9 11224.3C11741.7 11246.5 11755.6 11261.8 11771.6 11270.3C11787.6 11278.8 11805.1 11281.6 11823.9 11278.8C11842.3 11275.5 11861.6 11267.9 11881.9 11256.1L11915.8 11236.3C11918.2 11234.9 11920.3 11234.2 11922.2 11234.2C11923.6 11233.7 11924.8 11234 11925.7 11234.9Z" fill="#F2F4F3"/>
</svg>
