<svg width="13712" height="19800" fill="none" xmlns="http://www.w3.org/2000/svg"><path d="M7654.73 12695.9c138.48-311.7 108.49-672.5-79.55-957.2L0 273.07 13711 10589.1 4499.04 19800l3155.69-7104.1Z" fill="#197280"/><path d="M7665.52 12696.5c107.89-242.1 115.31-517 20.62-764.5L3121.05 0 13711.1 10589l-9212.06 9211 3166.48-7103.5Z" fill="#1D8596"/><path d="M7982.27 11958.8c113.86-256.3 114.85-548.6 2.74-805.7L3121.05 0 13711 10589l-9211.95 9211 3483.22-7841.2Z" fill="#15616D"/><path d="m12618.9 10729.6 184.9-184.9 7.1 5-187.7 187.7-4.3-7.8Zm198 180.4c.5.4.7 1.1.7 2.1.3.7 0 1.4-.7 2.1l-101.4 101.5c-.8.7-1.6 1-2.5 1-1 0-1.7-.2-2.1-.7-.8-.7-.9-1.5-.4-2.5 0-.9.4-1.7 1.1-2.4l11.3-21.2c4.2-8.5 6.2-19 6-31.5-.5-12.7-6.1-29-17-48.8l-285.7-529.6c-4.9-9.2-10.8-14.6-17.6-16.3-6.6-1.9-14.9 0-24.8 5.7-3 .7-5.4 1.4-7.1 2.1-1.4.5-2.3.5-2.8 0-.9-1-1.3-1.8-1-2.5.2-.7.8-1.5 1.7-2.5l111.4-111.3c.9-1 1.8-1.6 2.5-1.8.7-.2 1.5.1 2.4 1.1.5.4.6 1.5.4 3.1-.5 1.5-1.4 3.6-2.8 6.4-6.4 7.3-9.2 12.7-8.5 16.3.7 3 4.7 6.3 12 9.9l597.2 306.5c7.7 4 15 5.4 21.9 4.2 6.8-1.1 13.5-4.5 20.1-10.2 1.4-.9 2.6-1.4 3.6-1.4.7-.3 1.4 0 2.1.7.5.5.7 1.2.7 2.1.2.7-.1 1.5-1.1 2.5l-132.5 132.6c-.8.7-1.6 1-2.5 1-1 0-1.7-.2-2.1-.7-.8-.7-.9-1.5-.4-2.5.5-.9 1.1-2 1.8-3.1l16.9-21.3c4.3-6.6 5.6-12.1 3.9-16.6-1.9-4.7-6.1-8.7-12.7-12l-583.7-301.6-5.7-19.8 299.5 554c5.9 11.1 12.8 18.8 20.8 23 8.1 4.3 16.8 5.7 26.2 4.3 9.2-1.7 18.9-5.4 29-11.3l17-9.9c1.1-.7 2.2-1.1 3.2-1.1.7-.2 1.2-.1 1.7.4Z" fill="#1D8596"/></svg>