<svg width="13712" height="19801" viewBox="0 0 13712 19801" fill="none" xmlns="http://www.w3.org/2000/svg">
<path d="M7654.73 12695.9C7793.21 12384.2 7763.22 12023.4 7575.18 11738.8L0 273.074L13711 10589.1L4499.04 19800L7654.73 12695.9Z" fill="#F2F4F3"></path>
<path d="M7665.53 12696.5C7773.42 12454.4 7780.83 12179.5 7686.14 11932L3121.05 0L13711.1 10589L4499.05 19800L7665.53 12696.5Z" fill="white"></path>
<path d="M7982.28 11958.8C8096.13 11702.5 8097.13 11410.2 7985.02 11153.1L3121.05 0.00390625L13711 10589.1L4499.05 19800L7982.28 11958.8Z" fill="#E3E8E6"></path>
<path d="M12618.9 10729.6L12803.8 10544.7L12810.9 10549.7L12623.2 10737.4L12618.9 10729.6ZM12816.9 10910C12817.4 10910.4 12817.6 10911.1 12817.6 10912.1C12817.9 10912.8 12817.6 10913.5 12816.9 10914.2L12715.5 11015.7C12714.7 11016.4 12713.9 11016.7 12713 11016.7C12712 11016.7 12711.3 11016.5 12710.9 11016C12710.2 11015.3 12710 11014.5 12710.5 11013.6C12710.5 11012.6 12710.9 11011.8 12711.6 11011.1L12722.9 10989.9C12727.1 10981.4 12729.1 10970.9 12728.9 10958.4C12728.4 10945.7 12722.8 10929.4 12711.9 10909.6L12426.2 10380C12421.3 10370.8 12415.4 10365.4 12408.6 10363.7C12402 10361.8 12393.7 10363.7 12383.8 10369.4C12380.8 10370.1 12378.4 10370.8 12376.8 10371.5C12375.3 10372 12374.4 10372 12373.9 10371.5C12373 10370.6 12372.6 10369.7 12372.9 10369C12373.1 10368.3 12373.7 10367.5 12374.6 10366.5L12486 10255.2C12486.9 10254.2 12487.8 10253.6 12488.5 10253.4C12489.2 10253.2 12490 10253.5 12490.9 10254.5C12491.4 10254.9 12491.5 10256 12491.3 10257.7C12490.8 10259.1 12489.9 10261.2 12488.5 10264C12482.1 10271.3 12479.3 10276.7 12480 10280.3C12480.7 10283.3 12484.7 10286.6 12492 10290.2L13089.2 10596.7C13096.9 10600.7 13104.2 10602.1 13111.1 10601C13117.9 10599.8 13124.6 10596.4 13131.2 10590.7C13132.6 10589.8 13133.8 10589.3 13134.8 10589.3C13135.5 10589.1 13136.2 10589.3 13136.9 10590C13137.4 10590.5 13137.6 10591.2 13137.6 10592.1C13137.8 10592.8 13137.5 10593.6 13136.5 10594.6L13004 10727.2C13003.2 10727.9 13002.4 10728.2 13001.5 10728.2C13000.5 10728.2 12999.8 10728 12999.4 10727.5C12998.7 10726.8 12998.5 10726 12999 10725.1C12999.5 10724.1 13000.1 10723 13000.8 10721.9L13017.7 10700.7C13022 10694.1 13023.3 10688.5 13021.6 10684C13019.7 10679.3 13015.5 10675.3 13008.9 10672L12425.2 10370.4L12419.5 10350.6L12719 10904.7C12724.9 10915.7 12731.8 10923.4 12739.8 10927.6C12747.9 10931.9 12756.6 10933.3 12766 10931.9C12775.2 10930.2 12784.9 10926.5 12795 10920.6L12812 10910.7C12813.2 10910 12814.2 10909.6 12815.2 10909.6C12815.9 10909.4 12816.5 10909.5 12816.9 10910Z" fill="white"></path>
</svg>
