<svg width="509" height="280" viewBox="0 0 509 280" fill="none" xmlns="http://www.w3.org/2000/svg">
<path d="M55.1719 171.8H159.772L160.372 175.2H54.1719L55.1719 171.8ZM60.1719 278.8C60.1719 279.067 60.0385 279.333 59.7719 279.6C59.6385 279.867 59.3719 280 58.9719 280H1.57188C1.17188 280 0.838542 279.867 0.571875 279.6C0.305208 279.333 0.171875 279.067 0.171875 278.8C0.171875 278.4 0.371875 278.133 0.771875 278C1.03854 277.733 1.37188 277.6 1.77188 277.6L10.9719 274.8C14.5719 273.6 18.1052 271.2 21.5719 267.6C25.0385 263.867 28.0385 257.667 30.5719 249L99.5719 18.4C100.772 14.4 100.639 11.2 99.1719 8.79999C97.8385 6.39999 94.9719 4.59999 90.5719 3.4C89.5052 2.73333 88.6385 2.26666 87.9719 1.99998C87.4385 1.73332 87.1719 1.46665 87.1719 1.19999C87.1719 0.666647 87.3052 0.333314 87.5719 0.19999C87.8385 0.0666507 88.2385 -1.90735e-05 88.7719 -1.90735e-05H151.772C152.305 -1.90735e-05 152.705 0.0666507 152.972 0.19999C153.239 0.333314 153.372 0.666647 153.372 1.19999C153.372 1.46665 153.105 1.79999 152.572 2.19999C152.039 2.46665 151.172 2.79998 149.972 3.19999C146.105 3.46665 143.772 4.19999 142.972 5.39999C142.305 6.46666 142.505 8.53333 143.572 11.6L225.772 267.2C226.839 270.533 228.505 273 230.772 274.6C233.039 276.2 235.905 277.133 239.372 277.4C240.039 277.533 240.505 277.733 240.772 278C241.039 278.133 241.172 278.4 241.172 278.8C241.172 279.067 241.039 279.333 240.772 279.6C240.639 279.867 240.305 280 239.772 280H164.772C164.372 280 164.039 279.867 163.772 279.6C163.505 279.333 163.372 279.067 163.372 278.8C163.372 278.4 163.572 278.133 163.972 278C164.372 277.867 164.839 277.733 165.372 277.6L176.172 276.4C179.239 275.733 181.172 274.533 181.972 272.8C182.772 270.933 182.705 268.6 181.772 265.8L101.972 15.4L105.972 8.19998L33.9719 249.6C32.5052 254.4 32.3052 258.533 33.3719 262C34.4385 265.467 36.5052 268.333 39.5719 270.6C42.6385 272.733 46.4385 274.4 50.9719 275.6L58.5719 277.6C59.1052 277.733 59.5052 277.933 59.7719 278.2C60.0385 278.333 60.1719 278.533 60.1719 278.8ZM322.206 184.2C322.206 166.2 324.673 151.133 329.606 139C334.673 126.867 341.073 117.733 348.806 111.6C356.673 105.467 364.74 102.4 373.006 102.4C382.473 102.4 389.74 105.267 394.806 111C400.006 116.6 402.606 124.333 402.606 134.2C402.606 141.8 400.806 147.533 397.206 151.4C393.74 155.267 389.34 157.2 384.006 157.2C378.94 157.2 375.073 155.8 372.406 153C369.873 150.067 368.473 145.667 368.206 139.8V134.2C368.073 129.533 367.073 126.067 365.206 123.8C363.34 121.533 360.206 120.4 355.806 120.4C350.606 120.4 345.606 122.8 340.806 127.6C336.006 132.4 332.006 139.6 328.806 149.2C325.74 158.8 324.206 170.733 324.206 185L322.206 184.2ZM324.206 106.2V175V269C324.206 270.467 324.606 271.733 325.406 272.8C326.34 273.733 327.606 274.4 329.206 274.8L349.006 277.6C349.673 277.733 350.14 277.867 350.406 278C350.673 278.133 350.806 278.4 350.806 278.8C350.806 279.2 350.673 279.533 350.406 279.8C350.14 279.933 349.673 280 349.006 280H270.806C270.273 280 269.806 279.867 269.406 279.6C269.14 279.333 269.006 279.067 269.006 278.8C269.006 278.4 269.206 278.067 269.606 277.8C270.006 277.533 270.606 277.333 271.406 277.2L284.006 275.6C285.74 275.2 286.94 274.6 287.606 273.8C288.406 272.867 288.806 271.8 288.806 270.6V121.6C288.806 120.933 288.606 120.4 288.206 120C287.94 119.467 287.406 119.2 286.606 119.2H270.606C270.206 119.2 269.873 119.067 269.606 118.8C269.34 118.533 269.206 118.267 269.206 118C269.206 117.6 269.34 117.267 269.606 117C269.873 116.733 270.34 116.533 271.006 116.4L319.006 104.6C319.94 104.333 320.606 104.2 321.006 104.2C321.54 104.067 322.006 104 322.406 104C323.073 104 323.54 104.267 323.806 104.8C324.073 105.2 324.206 105.667 324.206 106.2ZM489.347 105.2V269.8C489.347 271.4 489.747 272.667 490.547 273.6C491.347 274.533 492.547 275.2 494.147 275.6L506.747 277.4C507.547 277.533 508.08 277.733 508.347 278C508.614 278.133 508.747 278.4 508.747 278.8C508.747 279.2 508.614 279.533 508.347 279.8C508.08 279.933 507.68 280 507.147 280H435.347C435.08 280 434.814 279.933 434.547 279.8C434.28 279.533 434.147 279.2 434.147 278.8C434.147 278.667 434.28 278.467 434.547 278.2C434.814 277.933 435.214 277.733 435.747 277.6L449.147 275.6C450.88 275.2 452.08 274.533 452.747 273.6C453.547 272.667 453.947 271.467 453.947 270V122.2C453.947 121.533 453.747 121 453.347 120.6C453.08 120.2 452.48 120 451.547 120H435.947C435.547 120 435.214 119.867 434.947 119.6C434.68 119.333 434.547 119.067 434.547 118.8C434.547 118.267 434.68 117.933 434.947 117.8C435.214 117.533 435.614 117.333 436.147 117.2L484.147 103.8C485.214 103.533 485.947 103.4 486.347 103.4C486.747 103.267 487.147 103.2 487.547 103.2C488.214 103.2 488.68 103.4 488.947 103.8C489.214 104.2 489.347 104.667 489.347 105.2ZM470.547 71C464.014 71 458.68 68.8 454.547 64.4C450.547 59.8666 448.547 54.3333 448.547 47.8C448.547 41.2667 450.614 35.8 454.747 31.4C459.014 26.8667 464.28 24.6 470.547 24.6C477.214 24.6 482.614 26.8667 486.747 31.4C491.014 35.9333 493.147 41.4 493.147 47.8C493.147 54.3333 491.014 59.8666 486.747 64.4C482.48 68.8 477.08 71 470.547 71Z" fill="#15616D"></path>
</svg>
