<svg class="logo w-100 h-100" viewBox="0 0 223 270" fill="none" xmlns="http://www.w3.org/2000/svg">
<path d="M187 75C187 116.421 153.421 150 112 150C70.5786 150 37 116.421 37 75C37 33.5786 70.5786 0 112 0C153.421 0 187 33.5786 187 75ZM40.75 75C40.75 114.35 72.6497 146.25 112 146.25C151.35 146.25 183.25 114.35 183.25 75C183.25 35.6497 151.35 3.75 112 3.75C72.6497 3.75 40.75 35.6497 40.75 75Z" fill="#D9D9D9"></path>
<path fill-rule="evenodd" clip-rule="evenodd" d="M112.003 141.669C148.822 141.669 178.669 111.822 178.669 75.0026C178.669 38.1836 148.822 8.33594 112.003 8.33594C75.1836 8.33594 45.3359 38.1836 45.3359 75.0026C45.3359 111.822 75.1836 141.669 112.003 141.669ZM112.003 52.6693C121.483 52.6693 129.169 44.9835 129.169 35.5026C129.169 26.0217 121.483 18.3359 112.003 18.3359C102.522 18.3359 94.8359 26.0217 94.8359 35.5026C94.8359 44.9835 102.522 52.6693 112.003 52.6693ZM94.8359 55.3359C94.8359 64.8168 87.1502 72.5026 77.6693 72.5026C68.1884 72.5026 60.5026 64.8168 60.5026 55.3359C60.5026 45.855 68.1884 38.1693 77.6693 38.1693C87.1502 38.1693 94.8359 45.855 94.8359 55.3359ZM115.336 75.0026C115.336 76.8436 113.844 78.3359 112.003 78.3359C110.162 78.3359 108.669 76.8436 108.669 75.0026C108.669 73.1617 110.162 71.6693 112.003 71.6693C113.844 71.6693 115.336 73.1617 115.336 75.0026ZM163.336 55.3359C163.336 64.8168 155.65 72.5026 146.169 72.5026C136.688 72.5026 129.003 64.8168 129.003 55.3359C129.003 45.855 136.688 38.1693 146.169 38.1693C155.65 38.1693 163.336 45.855 163.336 55.3359ZM146.169 111.836C155.65 111.836 163.336 104.15 163.336 94.6693C163.336 85.1884 155.65 77.5026 146.169 77.5026C136.688 77.5026 129.003 85.1884 129.003 94.6693C129.003 104.15 136.688 111.836 146.169 111.836ZM129.169 114.503C129.169 123.983 121.483 131.669 112.003 131.669C102.522 131.669 94.8359 123.983 94.8359 114.503C94.8359 105.022 102.522 97.3359 112.003 97.3359C121.483 97.3359 129.169 105.022 129.169 114.503ZM77.6693 111.836C87.1502 111.836 94.8359 104.15 94.8359 94.6693C94.8359 85.1884 87.1502 77.5026 77.6693 77.5026C68.1884 77.5026 60.5026 85.1884 60.5026 94.6693C60.5026 104.15 68.1884 111.836 77.6693 111.836Z" fill="#D9D9D9"></path>
<path d="M23.3508 255.168C23.7348 255.168 24.0708 255.312 24.3588 255.6C24.6468 255.856 24.7908 256.176 24.7908 256.56C24.7908 256.976 24.6468 257.328 24.3588 257.616C24.0708 257.872 23.7348 258 23.3508 258H6.21481C5.79881 258 5.44681 257.856 5.15881 257.568C4.90281 257.28 4.77481 256.944 4.77481 256.56V225.84C4.77481 225.456 4.91881 225.12 5.20681 224.832C5.49481 224.544 5.86281 224.4 6.31081 224.4C6.69481 224.4 7.03081 224.544 7.31881 224.832C7.63881 225.12 7.79881 225.456 7.79881 225.84V255.984L6.88681 255.168H23.3508ZM52.1842 224.4C52.6322 224.4 52.9842 224.544 53.2402 224.832C53.4962 225.088 53.6242 225.424 53.6242 225.84V245.712C53.6242 248.08 53.0642 250.224 51.9442 252.144C50.8242 254.064 49.3202 255.6 47.4322 256.752C45.5442 257.872 43.4162 258.432 41.0482 258.432C38.6802 258.432 36.5362 257.872 34.6162 256.752C32.7282 255.6 31.2242 254.064 30.1042 252.144C28.9842 250.224 28.4242 248.08 28.4242 245.712V225.84C28.4242 225.424 28.5522 225.088 28.8082 224.832C29.0962 224.544 29.4802 224.4 29.9602 224.4C30.3442 224.4 30.6802 224.544 30.9682 224.832C31.2562 225.088 31.4002 225.424 31.4002 225.84V245.712C31.4002 247.568 31.8322 249.232 32.6962 250.704C33.5922 252.176 34.7762 253.36 36.2482 254.256C37.7202 255.12 39.3202 255.552 41.0482 255.552C42.8402 255.552 44.4722 255.12 45.9442 254.256C47.4162 253.36 48.5842 252.176 49.4482 250.704C50.3442 249.232 50.7922 247.568 50.7922 245.712V225.84C50.7922 225.424 50.9202 225.088 51.1762 224.832C51.4322 224.544 51.7682 224.4 52.1842 224.4ZM86.2589 224.4C86.6749 224.4 86.9949 224.528 87.2189 224.784C87.4749 225.04 87.6029 225.36 87.6029 225.744V256.464C87.6029 256.944 87.4429 257.328 87.1229 257.616C86.8349 257.872 86.4989 258 86.1149 258C85.9229 258 85.7149 257.968 85.4909 257.904C85.2669 257.808 85.0909 257.68 84.9629 257.52L63.5549 228.672L64.3709 228.24V256.704C64.3709 257.056 64.2429 257.36 63.9869 257.616C63.7309 257.872 63.4109 258 63.0269 258C62.6109 258 62.2749 257.872 62.0189 257.616C61.7949 257.36 61.6829 257.056 61.6829 256.704V225.84C61.6829 225.36 61.8269 225.008 62.1149 224.784C62.4029 224.528 62.7229 224.4 63.0749 224.4C63.2669 224.4 63.4749 224.448 63.6989 224.544C63.9229 224.608 64.0989 224.736 64.2269 224.928L85.3949 253.44L84.9149 254.304V225.744C84.9149 225.36 85.0429 225.04 85.2989 224.784C85.5869 224.528 85.9069 224.4 86.2589 224.4ZM106.877 228.096L95.2128 257.088C95.0848 257.408 94.9088 257.648 94.6848 257.808C94.4608 257.968 94.2048 258.048 93.9168 258.048C93.4688 258.048 93.1328 257.936 92.9088 257.712C92.6848 257.456 92.5568 257.152 92.5248 256.8C92.4928 256.64 92.5088 256.448 92.5728 256.224L105.245 225.216C105.405 224.864 105.597 224.624 105.821 224.496C106.077 224.336 106.365 224.256 106.685 224.256C107.005 224.256 107.277 224.352 107.501 224.544C107.757 224.704 107.949 224.928 108.077 225.216L120.701 256.08C120.765 256.272 120.797 256.464 120.797 256.656C120.797 257.104 120.653 257.456 120.365 257.712C120.077 257.936 119.741 258.048 119.357 258.048C119.037 258.048 118.749 257.968 118.493 257.808C118.269 257.616 118.093 257.376 117.965 257.088L106.013 227.904L106.877 228.096ZM97.9968 248.304L99.1968 245.472H114.077L114.653 248.304H97.9968ZM127.395 258C126.915 258 126.515 257.856 126.195 257.568C125.907 257.28 125.763 256.944 125.763 256.56V225.84C125.763 225.456 125.907 225.12 126.195 224.832C126.483 224.544 126.819 224.4 127.203 224.4H140.163C141.987 224.4 143.619 224.8 145.059 225.6C146.499 226.368 147.619 227.44 148.419 228.816C149.251 230.192 149.667 231.744 149.667 233.472C149.667 234.88 149.411 236.176 148.899 237.36C148.387 238.544 147.667 239.552 146.739 240.384C145.811 241.184 144.771 241.776 143.619 242.16L141.939 241.632C143.123 241.728 144.227 242.112 145.251 242.784C146.275 243.424 147.091 244.32 147.699 245.472C148.339 246.592 148.675 247.952 148.707 249.552C148.739 250.928 148.803 252 148.899 252.768C149.027 253.536 149.203 254.112 149.427 254.496C149.651 254.88 149.939 255.184 150.291 255.408C150.611 255.6 150.819 255.872 150.915 256.224C151.043 256.576 151.011 256.912 150.819 257.232C150.691 257.488 150.499 257.68 150.243 257.808C150.019 257.904 149.779 257.952 149.523 257.952C149.267 257.952 149.011 257.888 148.755 257.76C148.307 257.504 147.843 257.104 147.363 256.56C146.915 256.016 146.531 255.216 146.211 254.16C145.923 253.104 145.779 251.632 145.779 249.744C145.779 248.496 145.571 247.472 145.155 246.672C144.771 245.872 144.259 245.264 143.619 244.848C143.011 244.4 142.323 244.096 141.555 243.936C140.819 243.744 140.115 243.648 139.443 243.648H128.259L128.787 242.976V256.56C128.787 256.944 128.659 257.28 128.403 257.568C128.147 257.856 127.811 258 127.395 258ZM128.259 241.008H140.307C141.395 240.912 142.419 240.56 143.379 239.952C144.339 239.312 145.107 238.448 145.683 237.36C146.291 236.272 146.595 235.008 146.595 233.568C146.595 231.744 145.971 230.24 144.723 229.056C143.507 227.84 141.907 227.232 139.923 227.232H128.451L128.787 226.56V241.68L128.259 241.008ZM170.639 224.4C173.007 224.4 175.071 224.848 176.831 225.744C178.623 226.64 180.095 227.888 181.247 229.488C182.399 231.056 183.247 232.848 183.791 234.864C184.367 236.88 184.655 238.992 184.655 241.2C184.655 244.272 184.143 247.088 183.119 249.648C182.127 252.176 180.591 254.208 178.511 255.744C176.463 257.248 173.839 258 170.639 258H158.399C158.015 258 157.679 257.856 157.391 257.568C157.103 257.28 156.959 256.944 156.959 256.56V225.84C156.959 225.456 157.103 225.12 157.391 224.832C157.679 224.544 158.015 224.4 158.399 224.4H170.639ZM170.159 255.168C172.879 255.168 175.071 254.544 176.735 253.296C178.399 252.048 179.615 250.368 180.383 248.256C181.183 246.112 181.583 243.76 181.583 241.2C181.583 239.344 181.359 237.584 180.911 235.92C180.495 234.224 179.823 232.736 178.895 231.456C177.999 230.144 176.815 229.12 175.343 228.384C173.903 227.616 172.175 227.232 170.159 227.232H159.647L159.983 226.8V255.648L159.695 255.168H170.159ZM220.451 241.2C220.451 243.728 220.051 246.048 219.251 248.16C218.483 250.24 217.379 252.064 215.939 253.632C214.499 255.168 212.787 256.368 210.803 257.232C208.851 258.064 206.707 258.48 204.371 258.48C202.035 258.48 199.875 258.064 197.891 257.232C195.939 256.368 194.243 255.168 192.803 253.632C191.363 252.064 190.243 250.24 189.443 248.16C188.675 246.048 188.291 243.728 188.291 241.2C188.291 238.672 188.675 236.368 189.443 234.288C190.243 232.176 191.363 230.352 192.803 228.816C194.243 227.248 195.939 226.048 197.891 225.216C199.875 224.352 202.035 223.92 204.371 223.92C206.707 223.92 208.851 224.352 210.803 225.216C212.787 226.048 214.499 227.248 215.939 228.816C217.379 230.352 218.483 232.176 219.251 234.288C220.051 236.368 220.451 238.672 220.451 241.2ZM217.379 241.2C217.379 238.352 216.819 235.856 215.699 233.712C214.611 231.536 213.091 229.84 211.139 228.624C209.187 227.408 206.931 226.8 204.371 226.8C201.843 226.8 199.587 227.408 197.603 228.624C195.651 229.84 194.115 231.536 192.995 233.712C191.907 235.856 191.363 238.352 191.363 241.2C191.363 244.048 191.907 246.56 192.995 248.736C194.115 250.88 195.651 252.56 197.603 253.776C199.587 254.992 201.843 255.6 204.371 255.6C206.931 255.6 209.187 254.992 211.139 253.776C213.091 252.56 214.611 250.88 215.699 248.736C216.819 246.56 217.379 244.048 217.379 241.2Z" fill="#D9D9D9"></path>
</svg>
